#tb 0: 1/25
0,          0,          0,        1,   304128, 0x901a13ed
0,          1,          1,        1,   304128, 0x793ccaa2
0,          2,          2,        1,   304128, 0x9eafeca3
0,          3,          3,        1,   304128, 0x18f0016f
0,          4,          4,        1,   304128, 0xc90f6cb3
0,          5,          5,        1,   304128, 0x82d751db
0,          6,          6,        1,   304128, 0x7cd2f846
0,          7,          7,        1,   304128, 0xb3801767
0,          8,          8,        1,   304128, 0x3372005b
0,          9,          9,        1,   304128, 0x822a722a
0,         10,         10,        1,   304128, 0x05908ec0
0,         11,         11,        1,   304128, 0xabbbf9b9
0,         12,         12,        1,   304128, 0x1b345ad1
0,         13,         13,        1,   304128, 0x6ccd4455
0,         14,         14,        1,   304128, 0xad541bc9
